<svg width="19" height="19" viewBox="0 0 19 19" fill="none" xmlns="http://www.w3.org/2000/svg">
<path d="M17.533 3.11088C17.3015 2.51306 16.9477 1.97017 16.4943 1.51694C16.041 1.06372 15.4979 0.710154 14.9 0.478883C14.2003 0.21624 13.4612 0.0742239 12.714 0.0588827C11.751 0.0168827 11.446 0.00488281 9.00401 0.00488281C6.56201 0.00488281 6.24901 0.00488271 5.29401 0.0588827C4.5474 0.0734396 3.80877 0.215484 3.11001 0.478883C2.51195 0.709884 1.96878 1.06335 1.51535 1.51661C1.06192 1.96987 0.708243 2.51291 0.477014 3.11088C0.214319 3.8105 0.0726287 4.54972 0.0580142 5.29688C0.0150142 6.25888 0.00201416 6.56388 0.00201416 9.00688C0.00201416 11.4489 0.00201415 11.7599 0.0580142 12.7169C0.0730142 13.4649 0.214014 14.2029 0.477014 14.9039C0.708892 15.5016 1.06291 16.0445 1.51645 16.4977C1.96999 16.9509 2.51308 17.3045 3.11101 17.5359C3.80845 17.8091 4.54739 17.9613 5.29601 17.9859C6.25901 18.0279 6.56401 18.0409 9.00601 18.0409C11.448 18.0409 11.761 18.0409 12.716 17.9859C13.4631 17.9707 14.2022 17.829 14.902 17.5669C15.4998 17.3351 16.0426 16.9812 16.496 16.5279C16.9493 16.0745 17.3032 15.5316 17.535 14.9339C17.798 14.2339 17.939 13.4959 17.954 12.7479C17.997 11.7859 18.01 11.4809 18.01 9.03788C18.01 6.59488 18.01 6.28488 17.954 5.32788C17.9424 4.57016 17.7999 3.82013 17.533 3.11088ZM16.315 12.6429C16.3086 13.2192 16.2034 13.7901 16.004 14.3309C15.8538 14.7198 15.6239 15.0729 15.3291 15.3676C15.0342 15.6622 14.681 15.8919 14.292 16.0419C13.7572 16.2403 13.1924 16.3455 12.622 16.3529C11.672 16.3969 11.404 16.4079 8.96801 16.4079C6.53001 16.4079 6.28101 16.4079 5.31301 16.3529C4.74294 16.3459 4.17834 16.2407 3.64401 16.0419C3.2537 15.8929 2.89902 15.6636 2.6029 15.3688C2.30679 15.0741 2.07585 14.7205 1.92501 14.3309C1.72846 13.7959 1.62333 13.2317 1.61401 12.6619C1.57101 11.7119 1.56101 11.4439 1.56101 9.00788C1.56101 6.57088 1.56101 6.32188 1.61401 5.35288C1.62048 4.77691 1.72567 4.2063 1.92501 3.66588C2.23001 2.87688 2.85501 2.25588 3.64401 1.95388C4.1786 1.75602 4.74304 1.65085 5.31301 1.64288C6.26401 1.59988 6.53101 1.58788 8.96801 1.58788C11.405 1.58788 11.655 1.58788 12.622 1.64288C13.1924 1.64974 13.7574 1.75495 14.292 1.95388C14.6809 2.10416 15.0342 2.33409 15.329 2.62891C15.6238 2.92374 15.8537 3.27695 16.004 3.66588C16.2006 4.20083 16.3057 4.76504 16.315 5.33488C16.358 6.28588 16.369 6.55288 16.369 8.98988C16.369 11.4259 16.369 11.6879 16.326 12.6439H16.315V12.6429Z" fill="white"/>
</svg>
