<svg width="22" height="30" viewBox="0 0 22 30" fill="none" xmlns="http://www.w3.org/2000/svg">
<path d="M11 0.777832C8.23127 0.780145 5.57597 1.878 3.61403 3.83161C1.6521 5.78521 0.542959 8.43582 0.52887 11.2045C0.52887 15.3556 2.85776 18.8312 4.56442 21.3645L4.87554 21.8267C6.57356 24.2877 8.39515 26.6611 10.3333 28.9378L11.0089 29.7289L11.6844 28.9378C13.6223 26.6609 15.4439 24.2875 17.1422 21.8267L17.4533 21.3556C19.1511 18.8223 21.48 15.3556 21.48 11.2045C21.4659 8.43428 20.3555 5.78233 18.3917 3.82847C16.4278 1.87461 13.7702 0.777796 11 0.777832ZM15.9689 20.3334L15.6489 20.8045C14.12 23.0978 12.0933 25.6667 11 26.9378C9.95109 25.6667 7.87998 23.0978 6.35109 20.8045L6.03998 20.3334C4.46665 17.9867 2.30665 14.7778 2.30665 11.1689C2.30665 10.0273 2.53151 8.89687 2.96839 7.84215C3.40527 6.78743 4.04561 5.82908 4.85287 5.02183C5.66012 4.21458 6.61846 3.57423 7.67318 3.13735C8.72791 2.70047 9.85835 2.47561 11 2.47561C12.1416 2.47561 13.272 2.70047 14.3268 3.13735C15.3815 3.57423 16.3398 4.21458 17.1471 5.02183C17.9543 5.82908 18.5947 6.78743 19.0316 7.84215C19.4685 8.89687 19.6933 10.0273 19.6933 11.1689C19.6933 14.8134 17.5422 18.0223 15.9689 20.3334Z" fill="white" fill-opacity="0.3"/>
</svg>
